<svg xmlns="http://www.w3.org/2000/svg" width="16" height="16" viewBox="0 0 16 16" fill="none">
  <path d="M14.9997 8.15571C14.9997 7.58016 14.9521 7.16016 14.8489 6.72461H8.14258V9.32236H12.0791C11.9997 9.96793 11.5711 10.9402 10.6187 11.5935L10.6054 11.6804L12.7258 13.2902L12.8727 13.3046C14.2219 12.0835 14.9997 10.2868 14.9997 8.15571Z" fill="#4185F0"/>
  <path d="M8.14462 14.9996C10.0732 14.9996 11.6922 14.3774 12.8748 13.3041L10.6208 11.5929C10.0176 12.0051 9.20808 12.2929 8.14462 12.2929C6.25575 12.2929 4.65259 11.0718 4.08111 9.38403L3.99734 9.391L1.79251 11.0632L1.76367 11.1418C2.93826 13.4285 5.35095 14.9996 8.14462 14.9996Z" fill="#3DD179"/>
  <path d="M4.07933 9.38436C3.92854 8.94881 3.84127 8.48211 3.84127 7.99991C3.84127 7.51766 3.92854 7.05101 4.0714 6.61546L4.0674 6.5227L1.83493 4.82361L1.76189 4.85766C1.27778 5.80656 1 6.87213 1 7.99991C1 9.12768 1.27778 10.1932 1.76189 11.1421L4.07933 9.38436Z" fill="#FBBC05"/>
  <path d="M8.14465 3.70665C9.4859 3.70665 10.3906 4.27442 10.9065 4.7489L12.9224 2.82C11.6844 1.69223 10.0732 1 8.14465 1C5.35097 1 2.93826 2.5711 1.76367 4.85775L4.07319 6.61555C4.65261 4.92777 6.25577 3.70665 8.14465 3.70665Z" fill="#F1323E"/>
</svg>